# xmcd
#
# Track frame offsets:
#	150
#	15970
#	33867
#	53645
#	71317
#	85095
#	101410
#	118111
#	135345
#	149886
#	165706
#	183603
#	203381
#	221053
#	234831
#	251146
#	267847
#	285081
#
# Disc length: 3994
#
# Revision: 1
# Processed by: cddbd v1.5.2PL0 Copyright (c) Steve Scherf et al.
# Submitted via: kJams Pro (development) 1.0patch45.20
#
DISCID=ef0f9812
DTITLE=Various Artist - NSC 3051
DYEAR=2004
DGENRE=Country
TTITLE0=Gretchen Wilson - Redneck Woman
TTITLE1=Toby Keith - Whiskey Girl
TTITLE2=Brad Paisley and Alison Krauss - Whiskey Lullaby
TTITLE3=Joe Nickols - If Nobody Believed In You
TTITLE4=Lee Ann Womack - The Wrong Girl
TTITLE5=Rachel Proctor - Me And Emily
TTITLE6=Blake Shelton - When Somebody Knows You That Well
TTITLE7=Josh Gracin - I Want To Live
TTITLE8=Andy Griggs - She Thinks She Needs Me
TTITLE9=Gretchen Wilson - Vocals - Redneck Woman
TTITLE10=Toby Keith - Vocals - Whiskey Girl
TTITLE11=Brad Paisley and Alison Krauss - Vocals - Whiskey Lullaby
TTITLE12=Joe Nickols - Vocals - If Nobody Believed In You
TTITLE13=Lee Ann Womack - Vocals - The Wrong Girl
TTITLE14=Rachel Proctor - Vocals - Me And Emily
TTITLE15=Blake Shelton - Vocals - When Somebody Knows You That Well
TTITLE16=Josh Gracin - Vocals - I Want To Live
TTITLE17=Andy Griggs - Vocals - She Thinks She Needs Me
EXTD=
EXTT0=
EXTT1=
EXTT2=
EXTT3=
EXTT4=
EXTT5=
EXTT6=
EXTT7=
EXTT8=
EXTT9=
EXTT10=
EXTT11=
EXTT12=
EXTT13=
EXTT14=
EXTT15=
EXTT16=
EXTT17=
PLAYORDER=
